<svg width="167" height="26" viewBox="0 0 167 26" fill="none" xmlns="http://www.w3.org/2000/svg">
<path d="M24.28 7.52L19.16 25.4L14.8 7.52H12.64L8.24 25.4L3.12 7.52H0.12L7.08 26H9.48L13.72 10.12L17.84 26H20.32L27.32 7.52H24.28ZM42.6844 20.04C41.6044 21.88 40.0444 23.28 38.2844 24C36.8044 24.6 35.3244 24.64 34.0444 24.12C33.8444 24 33.6844 23.92 33.4844 23.8C33.4444 23.8 33.4044 23.76 33.3644 23.72C31.0044 22.24 30.2444 18.92 31.3644 15.68H46.3244C45.9244 12.96 44.3244 10.6 42.0444 9.24C42.0044 9.24 41.9644 9.2 41.9244 9.2C41.9244 9.16 41.8844 9.16 41.8844 9.16C40.5644 8.4 39.0444 7.96 37.4044 7.96C32.4444 7.96 28.4044 12 28.4044 17C28.4044 20 29.8844 22.68 32.1644 24.32C32.3244 24.44 32.4844 24.56 32.6844 24.64C32.8044 24.76 32.9244 24.84 33.0444 24.88C33.2444 25 33.4444 25.08 33.6044 25.16C34.7644 25.72 36.0444 26 37.4044 26C41.8044 26 45.4844 22.88 46.2844 18.72H43.3244C43.1244 19.16 42.9244 19.6 42.6844 20.04ZM32.1644 13.96C33.2044 12.12 34.7644 10.72 36.5244 10C37.3244 9.68 38.1244 9.52 38.8844 9.52C39.5244 9.52 40.1644 9.64 40.7644 9.88L41.2444 10.12C41.2844 10.16 41.2844 10.16 41.3644 10.2C41.4044 10.2 41.4444 10.24 41.4844 10.28C42.9244 11.2 43.7644 12.8 43.9244 14.68H31.7644C31.8844 14.44 32.0044 14.2 32.1644 13.96ZM63.4594 9.2C63.4194 9.16 63.3794 9.12 63.3394 9.12C63.3394 9.08 63.2994 9.08 63.2994 9.08C61.9794 8.32 60.4994 7.92 58.8594 7.92C56.2194 7.92 53.8194 9.08 52.1794 10.92V0.48H49.7794V26H52.1794V22.88C52.6194 23.36 53.1394 23.84 53.6594 24.2C53.8194 24.36 53.9794 24.44 54.1394 24.56C54.2994 24.64 54.4194 24.72 54.5394 24.8C54.7394 24.88 54.8994 25 55.0994 25.08C56.2594 25.6 57.5394 25.92 58.8594 25.92C63.8194 25.92 67.8194 21.88 67.8194 16.92C67.8194 13.64 66.0594 10.76 63.4594 9.2ZM64.0994 19.96C63.0194 21.8 61.4994 23.2 59.7394 23.88C58.2594 24.48 56.7794 24.52 55.5394 24C55.3394 23.92 55.1794 23.84 54.9794 23.72C54.9394 23.68 54.8994 23.68 54.8594 23.64C52.0594 21.88 51.5394 17.56 53.6594 13.88C54.6994 12.04 56.2594 10.64 58.0194 9.92C58.7794 9.6 59.5794 9.44 60.3394 9.44C60.9794 9.44 61.6194 9.56 62.2194 9.84L62.6594 10.04C62.6994 10.04 62.7394 10.08 62.7794 10.12C62.8194 10.16 62.8594 10.16 62.8994 10.2C65.6594 11.92 66.2194 16.24 64.0994 19.96ZM86.1719 0.48V10.92C85.5719 10.2 84.8519 9.64 84.0919 9.16C84.0519 9.12 84.0119 9.08 83.9719 9.08H83.9319C82.6119 8.32 81.0919 7.88 79.4519 7.88C74.5319 7.88 70.4919 11.92 70.4919 16.88C70.4919 19.88 71.9719 22.56 74.2519 24.16C74.4119 24.28 74.5719 24.4 74.7319 24.48C74.8519 24.6 75.0119 24.68 75.1319 24.76C75.2919 24.84 75.4919 24.96 75.6919 25.04C76.8519 25.56 78.1319 25.88 79.4519 25.88C82.1319 25.88 84.5319 24.72 86.1719 22.84V26H88.5719V0.48H86.1719ZM84.7319 19.92C83.6519 21.76 82.0919 23.16 80.3319 23.84C78.8519 24.44 77.3719 24.48 76.1319 23.96C75.9319 23.88 75.7319 23.8 75.5719 23.68C75.5319 23.64 75.4919 23.6 75.4119 23.6C72.6519 21.84 72.0919 17.52 74.2119 13.84C75.2919 12 76.8519 10.64 78.6119 9.92C79.4119 9.6 80.1719 9.44 80.9319 9.44C81.6119 9.44 82.2519 9.56 82.8119 9.8L83.2919 10.04C83.3319 10.04 83.3719 10.08 83.4119 10.08C83.4519 10.12 83.4919 10.16 83.5319 10.16C86.2919 11.88 86.8519 16.2 84.7319 19.92ZM106.323 20.04C105.243 21.88 103.683 23.28 101.923 24C100.443 24.6 98.9634 24.64 97.6834 24.12C97.4834 24 97.3234 23.92 97.1234 23.8C97.0834 23.8 97.0434 23.76 97.0034 23.72C94.6434 22.24 93.8834 18.92 95.0034 15.68H109.963C109.563 12.96 107.963 10.6 105.683 9.24C105.643 9.24 105.603 9.2 105.563 9.2C105.563 9.16 105.523 9.16 105.523 9.16C104.203 8.4 102.683 7.96 101.043 7.96C96.0834 7.96 92.0434 12 92.0434 17C92.0434 20 93.5234 22.68 95.8034 24.32C95.9634 24.44 96.1234 24.56 96.3234 24.64C96.4434 24.76 96.5634 24.84 96.6834 24.88C96.8834 25 97.0834 25.08 97.2434 25.16C98.4034 25.72 99.6834 26 101.043 26C105.443 26 109.123 22.88 109.923 18.72H106.963C106.763 19.16 106.563 19.6 106.323 20.04ZM95.8034 13.96C96.8434 12.12 98.4034 10.72 100.163 10C100.963 9.68 101.763 9.52 102.523 9.52C103.163 9.52 103.803 9.64 104.403 9.88L104.883 10.12C104.923 10.16 104.923 10.16 105.003 10.2C105.043 10.2 105.083 10.24 105.123 10.28C106.563 11.2 107.403 12.8 107.563 14.68H95.4034C95.5234 14.44 95.6434 14.2 95.8034 13.96ZM128.418 7.48V10.96C127.778 10.24 127.058 9.64 126.218 9.16C126.218 9.12 126.178 9.08 126.138 9.08H126.098C124.778 8.32 123.258 7.88 121.618 7.88C116.658 7.88 112.618 11.92 112.618 16.88C112.618 19.92 114.098 22.6 116.378 24.2C116.538 24.32 116.698 24.44 116.858 24.56C117.018 24.64 117.138 24.72 117.258 24.8C117.458 24.88 117.658 25 117.818 25.08C118.978 25.6 120.258 25.92 121.618 25.92C124.338 25.92 126.738 24.72 128.418 22.84V26H130.818V7.48H128.418ZM127.018 19.92C125.978 21.76 124.418 23.2 122.658 23.88C121.138 24.48 119.538 24.52 118.258 24C118.058 23.92 117.898 23.8 117.698 23.68C117.658 23.68 117.618 23.64 117.578 23.64C114.778 21.88 114.218 17.56 116.378 13.84C117.418 12 118.978 10.6 120.738 9.88C121.538 9.56 122.338 9.44 123.098 9.44C123.738 9.44 124.538 9.56 125.138 9.8L125.578 10C125.618 10.04 125.658 10.08 125.698 10.08C125.738 10.12 125.778 10.12 125.818 10.16C128.618 11.92 129.178 16.24 127.018 19.92ZM141.807 8.12C141.807 8.12 141.727 8.16 141.687 8.16C141.687 8.16 141.687 8.16 141.687 8.2C140.207 8.56 138.807 9.32 137.647 10.48C137.607 10.52 137.567 10.6 137.527 10.64V7.52H135.087V26H137.527V17C137.887 11.08 140.527 9.92 140.527 9.92C140.807 9.76 141.087 9.6 141.367 9.48L141.887 9.32C141.927 9.28 141.967 9.28 142.007 9.28C142.047 9.24 142.087 9.24 142.167 9.24C144.127 8.76 146.167 9.64 147.727 11.32L149.407 9.64C147.207 7.96 144.367 7.48 141.807 8.12ZM164.905 22.72C164.065 23.92 162.865 24.76 161.065 24.76C156.505 24.76 155.545 19.24 155.545 16.24C155.545 15.24 155.545 11.4 155.545 9.36H160.985V8.36H155.545V0.48H152.985V8.36H151.025V9.36H152.985V15.4C152.985 19.72 155.105 26 161.145 26C163.385 26 165.065 25.12 166.265 23.8C165.825 23.44 165.345 23.08 164.905 22.72Z" fill="white"/>
</svg>
