<svg width="125" height="20" viewBox="0 0 125 20" fill="none" xmlns="http://www.w3.org/2000/svg">
<path d="M18.21 6.14L14.37 19.55L11.1 6.14H9.48L6.18 19.55L2.34 6.14H0.09L5.31 20H7.11L10.29 8.09L13.38 20H15.24L20.49 6.14H18.21ZM32.0133 15.53C31.2033 16.91 30.0333 17.96 28.7133 18.5C27.6033 18.95 26.4933 18.98 25.5333 18.59C25.3833 18.5 25.2633 18.44 25.1133 18.35C25.0833 18.35 25.0533 18.32 25.0233 18.29C23.2533 17.18 22.6833 14.69 23.5233 12.26H34.7433C34.4433 10.22 33.2433 8.45 31.5333 7.43C31.5033 7.43 31.4733 7.4 31.4433 7.4C31.4433 7.37 31.4133 7.37 31.4133 7.37C30.4233 6.8 29.2833 6.47 28.0533 6.47C24.3333 6.47 21.3033 9.5 21.3033 13.25C21.3033 15.5 22.4133 17.51 24.1233 18.74C24.2433 18.83 24.3633 18.92 24.5133 18.98C24.6033 19.07 24.6933 19.13 24.7833 19.16C24.9333 19.25 25.0833 19.31 25.2033 19.37C26.0733 19.79 27.0333 20 28.0533 20C31.3533 20 34.1133 17.66 34.7133 14.54H32.4933C32.3433 14.87 32.1933 15.2 32.0133 15.53ZM24.1233 10.97C24.9033 9.59 26.0733 8.54 27.3933 8C27.9933 7.76 28.5933 7.64 29.1633 7.64C29.6433 7.64 30.1233 7.73 30.5733 7.91L30.9333 8.09C30.9633 8.12 30.9633 8.12 31.0233 8.15C31.0533 8.15 31.0833 8.18 31.1133 8.21C32.1933 8.9 32.8233 10.1 32.9433 11.51H23.8233C23.9133 11.33 24.0033 11.15 24.1233 10.97ZM47.5945 7.4C47.5645 7.37 47.5345 7.34 47.5045 7.34C47.5045 7.31 47.4745 7.31 47.4745 7.31C46.4845 6.74 45.3745 6.44 44.1445 6.44C42.1645 6.44 40.3645 7.31 39.1345 8.69V0.86H37.3345V20H39.1345V17.66C39.4645 18.02 39.8545 18.38 40.2445 18.65C40.3645 18.77 40.4845 18.83 40.6045 18.92C40.7245 18.98 40.8145 19.04 40.9045 19.1C41.0545 19.16 41.1745 19.25 41.3245 19.31C42.1945 19.7 43.1545 19.94 44.1445 19.94C47.8645 19.94 50.8645 16.91 50.8645 13.19C50.8645 10.73 49.5445 8.57 47.5945 7.4ZM48.0745 15.47C47.2645 16.85 46.1245 17.9 44.8045 18.41C43.6945 18.86 42.5845 18.89 41.6545 18.5C41.5045 18.44 41.3845 18.38 41.2345 18.29C41.2045 18.26 41.1745 18.26 41.1445 18.23C39.0445 16.91 38.6545 13.67 40.2445 10.91C41.0245 9.53 42.1945 8.48 43.5145 7.94C44.0845 7.7 44.6845 7.58 45.2545 7.58C45.7345 7.58 46.2145 7.67 46.6645 7.88L46.9945 8.03C47.0245 8.03 47.0545 8.06 47.0845 8.09C47.1145 8.12 47.1445 8.12 47.1745 8.15C49.2445 9.44 49.6645 12.68 48.0745 15.47ZM64.6289 0.86V8.69C64.1789 8.15 63.6389 7.73 63.0689 7.37C63.0389 7.34 63.0089 7.31 62.9789 7.31H62.9489C61.9589 6.74 60.8189 6.41 59.5889 6.41C55.8989 6.41 52.8689 9.44 52.8689 13.16C52.8689 15.41 53.9789 17.42 55.6889 18.62C55.8089 18.71 55.9289 18.8 56.0489 18.86C56.1389 18.95 56.2589 19.01 56.3489 19.07C56.4689 19.13 56.6189 19.22 56.7689 19.28C57.6389 19.67 58.5989 19.91 59.5889 19.91C61.5989 19.91 63.3989 19.04 64.6289 17.63V20H66.4289V0.86H64.6289ZM63.5489 15.44C62.7389 16.82 61.5689 17.87 60.2489 18.38C59.1389 18.83 58.0289 18.86 57.0989 18.47C56.9489 18.41 56.7989 18.35 56.6789 18.26C56.6489 18.23 56.6189 18.2 56.5589 18.2C54.4889 16.88 54.0689 13.64 55.6589 10.88C56.4689 9.5 57.6389 8.48 58.9589 7.94C59.5589 7.7 60.1289 7.58 60.6989 7.58C61.2089 7.58 61.6889 7.67 62.1089 7.85L62.4689 8.03C62.4989 8.03 62.5289 8.06 62.5589 8.06C62.5889 8.09 62.6189 8.12 62.6489 8.12C64.7189 9.41 65.1389 12.65 63.5489 15.44ZM79.7426 15.53C78.9326 16.91 77.7626 17.96 76.4426 18.5C75.3326 18.95 74.2226 18.98 73.2626 18.59C73.1126 18.5 72.9926 18.44 72.8426 18.35C72.8126 18.35 72.7826 18.32 72.7526 18.29C70.9826 17.18 70.4126 14.69 71.2526 12.26H82.4726C82.1726 10.22 80.9726 8.45 79.2626 7.43C79.2326 7.43 79.2026 7.4 79.1726 7.4C79.1726 7.37 79.1426 7.37 79.1426 7.37C78.1526 6.8 77.0126 6.47 75.7826 6.47C72.0626 6.47 69.0326 9.5 69.0326 13.25C69.0326 15.5 70.1426 17.51 71.8526 18.74C71.9726 18.83 72.0926 18.92 72.2426 18.98C72.3326 19.07 72.4226 19.13 72.5126 19.16C72.6626 19.25 72.8126 19.31 72.9326 19.37C73.8026 19.79 74.7626 20 75.7826 20C79.0826 20 81.8426 17.66 82.4426 14.54H80.2226C80.0726 14.87 79.9226 15.2 79.7426 15.53ZM71.8526 10.97C72.6326 9.59 73.8026 8.54 75.1226 8C75.7226 7.76 76.3226 7.64 76.8926 7.64C77.3726 7.64 77.8526 7.73 78.3026 7.91L78.6626 8.09C78.6926 8.12 78.6926 8.12 78.7526 8.15C78.7826 8.15 78.8126 8.18 78.8426 8.21C79.9226 8.9 80.5526 10.1 80.6726 11.51H71.5526C71.6426 11.33 71.7326 11.15 71.8526 10.97ZM96.3138 6.11V8.72C95.8338 8.18 95.2938 7.73 94.6638 7.37C94.6638 7.34 94.6338 7.31 94.6038 7.31H94.5738C93.5838 6.74 92.4438 6.41 91.2138 6.41C87.4938 6.41 84.4638 9.44 84.4638 13.16C84.4638 15.44 85.5738 17.45 87.2838 18.65C87.4038 18.74 87.5238 18.83 87.6438 18.92C87.7638 18.98 87.8538 19.04 87.9438 19.1C88.0938 19.16 88.2438 19.25 88.3638 19.31C89.2338 19.7 90.1938 19.94 91.2138 19.94C93.2538 19.94 95.0538 19.04 96.3138 17.63V20H98.1138V6.11H96.3138ZM95.2638 15.44C94.4838 16.82 93.3138 17.9 91.9938 18.41C90.8538 18.86 89.6538 18.89 88.6938 18.5C88.5438 18.44 88.4238 18.35 88.2738 18.26C88.2438 18.26 88.2138 18.23 88.1838 18.23C86.0838 16.91 85.6638 13.67 87.2838 10.88C88.0638 9.5 89.2338 8.45 90.5538 7.91C91.1538 7.67 91.7538 7.58 92.3238 7.58C92.8038 7.58 93.4038 7.67 93.8538 7.85L94.1838 8C94.2138 8.03 94.2438 8.06 94.2738 8.06C94.3038 8.09 94.3338 8.09 94.3638 8.12C96.4638 9.44 96.8838 12.68 95.2638 15.44ZM106.355 6.59C106.355 6.59 106.295 6.62 106.265 6.62C106.265 6.62 106.265 6.62 106.265 6.65C105.155 6.92 104.105 7.49 103.235 8.36C103.205 8.39 103.175 8.45 103.145 8.48V6.14H101.315V20H103.145V13.25C103.415 8.81 105.395 7.94 105.395 7.94C105.605 7.82 105.815 7.7 106.025 7.61L106.415 7.49C106.445 7.46 106.475 7.46 106.505 7.46C106.535 7.43 106.565 7.43 106.625 7.43C108.095 7.07 109.625 7.73 110.795 8.99L112.055 7.73C110.405 6.47 108.275 6.11 106.355 6.59ZM123.679 17.54C123.049 18.44 122.149 19.07 120.799 19.07C117.379 19.07 116.659 14.93 116.659 12.68C116.659 11.93 116.659 9.05 116.659 7.52H120.739V6.77H116.659V0.86H114.739V6.77H113.269V7.52H114.739V12.05C114.739 15.29 116.329 20 120.859 20C122.539 20 123.799 19.34 124.699 18.35C124.369 18.08 124.009 17.81 123.679 17.54Z" fill="black"/>
</svg>
