<svg width="28" height="27" viewBox="0 0 28 27" fill="none" xmlns="http://www.w3.org/2000/svg">
<path d="M0 13.3705C0 11.1509 0 8.95769 0 6.73808C0.0275387 2.8802 2.97418 0.0528477 6.99484 0.0264239C11.5938 0 16.2203 0 20.8193 0C25.0602 0.0264239 27.9518 2.7745 27.9793 6.84378C28.0069 11.2037 28.0069 15.5636 27.9793 19.9236C27.9793 23.8343 25.1704 26.6617 21.0947 26.7145C16.3855 26.7938 11.6764 26.7938 6.93976 26.7145C2.72633 26.6617 0.0275387 23.8872 0 19.8179C0 17.6511 0 15.5108 0 13.3705ZM14.0172 1.87609C11.759 1.87609 9.47332 1.84967 7.21515 1.87609C3.99312 1.92894 1.98279 3.80503 1.98279 6.89663C1.92771 11.2301 1.92771 15.5636 1.95525 19.8707C1.98279 22.9359 3.99312 24.8648 7.21515 24.8913C11.7315 24.9177 16.2203 24.9177 20.7367 24.8913C23.9862 24.8648 26.0241 22.9359 26.0516 19.8179C26.0792 15.5636 26.0792 11.3094 26.0516 7.02874C26.0516 3.83146 24.0413 1.90252 20.7367 1.87609C18.4785 1.87609 16.2479 1.87609 14.0172 1.87609Z" fill="white"/>
<path d="M6.60949 13.5291C6.52687 9.56549 9.69382 6.39463 13.8797 6.31536C18.0105 6.23609 21.2876 9.27483 21.4253 13.2648C21.5355 17.1756 18.3134 20.3993 14.1551 20.4785C9.99675 20.5578 6.69211 17.4926 6.60949 13.5291ZM14.0174 8.16503C10.9881 8.16503 8.56474 10.4639 8.5372 13.3441C8.50966 16.2507 10.9606 18.6024 14.0449 18.6289C16.9916 18.6289 19.4701 16.3036 19.4701 13.5026C19.4701 10.5167 17.0742 8.16503 14.0174 8.16503Z" fill="white"/>
<path d="M21.9485 7.37238C20.9295 7.37238 20.2961 6.76463 20.2961 5.78695C20.2961 4.88854 20.9571 4.22794 21.8934 4.22794C22.8848 4.20151 23.6008 4.86211 23.6283 5.78695C23.6283 6.71179 22.9398 7.37238 21.9485 7.37238Z" fill="white"/>
</svg>
