<svg width="27" height="27" viewBox="0 0 27 27" fill="none" xmlns="http://www.w3.org/2000/svg">
<g clip-path="url(#clip0)">
<path d="M26.934 13.7079C27.1146 21.1035 20.8383 26.7423 13.969 26.9328C6.28873 27.1457 -0.127082 21.1882 0.0660158 13.2435C0.24541 5.90401 5.74308 0.0722276 13.5218 0.0622673C20.4309 0.053552 27 5.03621 26.934 13.7079ZM13.5181 25.7662C20.1569 25.7662 25.7218 20.4038 25.7953 14.0864C25.8937 5.655 19.8217 1.38948 13.8781 1.24257C6.51049 1.05955 1.34669 6.52155 1.23332 13.3755C1.11372 20.5818 6.90166 25.7512 13.5181 25.7662Z" fill="white"/>
<path d="M13.5827 27C9.92877 27 6.41315 25.5744 3.88295 23.0545C1.29171 20.4735 -0.0861356 16.9886 0.00605291 13.2423C0.0932582 9.62418 1.47733 6.29245 3.90164 3.85963C6.37827 1.37577 9.79547 0.00498017 13.5229 0C13.5291 0 13.5353 0 13.5416 0C17.2241 0 20.7547 1.42682 23.2313 3.9169C25.7254 6.42442 27.0272 9.80969 26.9986 13.7067C27.0846 17.2189 25.7142 20.5432 23.1416 23.0657C20.6912 25.4686 17.3487 26.9004 13.9739 26.9938C13.8418 26.9975 13.7122 27 13.5827 27ZM13.5416 0.124504C13.5353 0.124504 13.5291 0.124504 13.5241 0.124504C5.94847 0.134465 0.315009 5.65249 0.129386 13.2448C0.0384435 16.9562 1.40258 20.4087 3.97016 22.9648C6.56638 25.5508 10.2091 26.9751 13.9689 26.8693C21.1334 26.6701 27.0422 20.6441 26.8728 13.7079V13.7054C26.9027 9.84206 25.612 6.48792 23.1429 4.00406C20.6899 1.53763 17.1917 0.124504 13.5416 0.124504ZM13.5191 25.8284C10.1667 25.8209 6.9177 24.4663 4.60551 22.112C2.33568 19.8012 1.1173 16.6973 1.17211 13.3743C1.22942 9.91552 2.55992 6.76556 4.9182 4.50332C7.24285 2.27469 10.4234 1.09439 13.8804 1.17906C17.0335 1.25749 19.9698 2.44153 22.1462 4.51204C24.6204 6.86517 25.9035 10.1757 25.8574 14.0864C25.7839 20.4511 20.133 25.8284 13.5191 25.8284ZM13.5191 25.7039C20.067 25.7039 25.6606 20.3838 25.7341 14.0852C25.835 5.50807 19.6584 1.44798 13.8779 1.30356C10.4582 1.2189 7.30514 2.38675 5.00416 4.59296C2.66955 6.83155 1.35275 9.95038 1.29669 13.3767C1.24188 16.6674 2.44905 19.7377 4.69521 22.0248C6.98372 24.3555 10.2004 25.6964 13.5191 25.7039Z" fill="white"/>
<path d="M20.3051 7.89358C20.1319 8.78877 19.95 9.735 19.7669 10.68C19.129 13.9918 18.4887 17.3024 17.8546 20.6142C17.6914 21.4646 17.2753 21.6389 16.5465 21.1446C15.4016 20.3677 14.2505 19.5995 13.1156 18.8089C12.8665 18.6358 12.7008 18.6483 12.4666 18.8288C11.962 19.2185 11.4276 19.5683 10.9131 19.9444C10.198 20.466 9.8068 20.349 9.56138 19.4862C9.25865 18.4254 8.97337 17.3596 8.71673 16.2877C8.61458 15.8606 8.39283 15.6153 7.99044 15.4672C7.01249 15.1074 6.04202 14.7314 5.07404 14.3466C4.72772 14.2097 4.32782 14.0603 4.31785 13.617C4.30664 13.1427 4.71899 12.9945 5.08277 12.8501C9.73205 10.9975 14.3826 9.14609 19.0344 7.29471C19.1639 7.24242 19.2935 7.18515 19.428 7.14904C19.9637 7.00586 20.3138 7.28351 20.3051 7.89358ZM18.6008 9.80721C18.4476 9.77235 18.3878 9.85328 18.323 9.91553C16.2039 11.9524 14.0886 13.993 11.9645 16.025C11.7428 16.2366 11.7677 16.3412 12.0168 16.508C13.4781 17.4841 14.9307 18.4727 16.3783 19.4687C16.6661 19.6667 16.7533 19.6094 16.8144 19.277C17.2354 16.9998 17.6727 14.7264 18.1038 12.4504C18.2707 11.5702 18.4351 10.6875 18.6008 9.80721ZM16.6125 9.76861C16.5901 9.73624 16.5665 9.70387 16.544 9.6715C13.3087 10.9601 10.0734 12.2487 6.71475 13.5872C7.55815 13.9146 8.25579 14.2084 8.97088 14.4537C9.44677 14.6168 9.73704 14.8833 9.8205 15.3925C9.85663 15.6104 9.89401 15.8469 10.0697 16.0698C12.2573 13.9607 14.4349 11.864 16.6125 9.76861ZM10.2702 16.9575C10.3064 17.4543 10.482 17.8552 10.5892 18.2723C10.6116 18.3607 10.6527 18.4839 10.7685 18.4254C11.0576 18.2772 11.389 18.1241 11.5223 17.8352C11.592 17.6834 11.2631 17.5813 11.1086 17.4667C10.862 17.2849 10.6315 17.0708 10.2702 16.9575Z" fill="white"/>
<path d="M17.2281 21.4807C17.0287 21.4807 16.792 21.3861 16.5117 21.1956C16.1766 20.9678 15.8415 20.7412 15.5051 20.5146C14.7078 19.9755 13.8831 19.4189 13.0796 18.8599C12.8578 18.7055 12.7221 18.7093 12.504 18.8786C12.1976 19.1152 11.8749 19.3405 11.5635 19.5596C11.3579 19.7041 11.1524 19.8472 10.9493 19.9954C10.5606 20.2793 10.2703 20.3739 10.0361 20.293C9.80192 20.212 9.63125 19.9618 9.50169 19.5036C9.1728 18.3482 8.89499 17.3011 8.6558 16.3026C8.55863 15.8992 8.35307 15.6676 7.96812 15.5257C7.1023 15.207 6.17419 14.8509 5.05048 14.4052L5.02931 14.3964C4.6892 14.262 4.26688 14.0939 4.25442 13.6183C4.24197 13.1153 4.65681 12.9509 5.02308 12.8053L5.05796 12.7916C9.50294 11.0199 13.9479 9.25068 18.3941 7.48147L19.093 7.20258C19.1952 7.1615 19.2998 7.11792 19.4095 7.08928C19.6885 7.01458 19.9265 7.04695 20.0971 7.18017C20.279 7.32211 20.3725 7.56987 20.3675 7.89483L20.3662 7.90603L19.331 13.2734C18.8588 15.7249 18.3854 18.1751 17.9158 20.6266C17.8298 21.0773 17.6728 21.3438 17.4386 21.4409C17.3726 21.4683 17.3028 21.4807 17.2281 21.4807ZM12.8005 18.6246C12.9114 18.6246 13.0235 18.6694 13.1519 18.7591C13.9554 19.3181 14.7789 19.8746 15.5762 20.4125C15.9113 20.6391 16.2476 20.8657 16.5828 21.0935C16.9266 21.3276 17.1994 21.4048 17.3913 21.3263C17.5819 21.2479 17.7177 21.0039 17.7937 20.6042C18.2633 18.1527 18.7355 15.7012 19.2089 13.251L20.2429 7.8886C20.2466 7.60598 20.1694 7.39556 20.0199 7.27978C19.8804 7.17146 19.6798 7.1478 19.4406 7.2113C19.3397 7.23869 19.2375 7.27978 19.1391 7.31962L18.439 7.59851C13.9928 9.36771 9.54778 11.1369 5.10281 12.9086L5.06792 12.9223C4.72409 13.0593 4.36779 13.2 4.37776 13.6158C4.38772 14.0092 4.73654 14.1474 5.07415 14.2807L5.09533 14.2894C6.21903 14.7351 7.1459 15.0912 8.01048 15.4087C8.43405 15.5643 8.6695 15.8307 8.77664 16.274C9.01583 17.2712 9.2924 18.3171 9.62129 19.47C9.73839 19.8796 9.88664 20.1099 10.0772 20.1759C10.2679 20.2419 10.5295 20.1498 10.877 19.8958C11.0801 19.7476 11.2869 19.6032 11.4937 19.4588C11.8039 19.2409 12.1253 19.0168 12.4293 18.7815C12.5626 18.6769 12.6809 18.6246 12.8005 18.6246ZM16.6301 19.6455C16.5566 19.6455 16.4681 19.6057 16.3436 19.5198C14.7764 18.4416 13.3499 17.4729 11.9821 16.5591C11.8674 16.4831 11.7616 16.396 11.7516 16.2827C11.7441 16.1918 11.7939 16.1022 11.921 15.9801C13.472 14.496 15.0442 12.9833 16.5641 11.5204L18.2982 9.85203C18.3593 9.79103 18.444 9.70636 18.6146 9.74621L18.6732 9.7599L18.5187 10.5829C18.4016 11.2091 18.2845 11.8366 18.1649 12.4629C18.0441 13.1041 17.922 13.744 17.7999 14.3852C17.4947 15.9926 17.1782 17.6535 16.8755 19.2895C16.8431 19.465 16.8008 19.5908 16.6999 19.6318C16.6774 19.6406 16.655 19.6455 16.6301 19.6455ZM18.5274 9.86075C18.4651 9.86199 18.4303 9.89686 18.3867 9.94043L18.3655 9.96035L16.65 11.61C15.1289 13.073 13.5567 14.5857 12.007 16.0698C11.9135 16.1594 11.8712 16.2242 11.8749 16.2715C11.8787 16.32 11.9335 16.3773 12.0518 16.4557C13.4197 17.3696 14.8461 18.3395 16.4146 19.4177C16.5342 19.4999 16.6151 19.5335 16.6538 19.5173C16.7123 19.4924 16.7447 19.3231 16.7547 19.267C17.0574 17.6311 17.3738 15.9689 17.6791 14.3628C17.8011 13.7216 17.9232 13.0817 18.0441 12.4405C18.1624 11.8142 18.2795 11.1867 18.3966 10.5605L18.5274 9.86075ZM10.7114 18.5026C10.6877 18.5026 10.669 18.4976 10.654 18.4901C10.5805 18.4578 10.5494 18.3694 10.5282 18.2872C10.4958 18.1627 10.4585 18.0419 10.4186 17.9137C10.3276 17.6186 10.233 17.3148 10.2068 16.9612L10.2006 16.8703L10.2878 16.8977C10.5942 16.9936 10.8073 17.1567 11.0128 17.3161C11.0564 17.3497 11.1 17.3833 11.1449 17.4169C11.186 17.4468 11.2408 17.4767 11.2994 17.509C11.4563 17.5937 11.6519 17.6995 11.5772 17.8614C11.4439 18.1502 11.1312 18.3096 10.8534 18.4503L10.7948 18.4802C10.7637 18.4976 10.7363 18.5026 10.7114 18.5026ZM10.3414 17.0484C10.375 17.3497 10.4585 17.6174 10.5382 17.8788C10.5768 18.0021 10.6167 18.1303 10.6491 18.2573C10.6715 18.3457 10.6927 18.3719 10.7051 18.3768C10.7138 18.3818 10.73 18.3744 10.7388 18.3694L10.7973 18.3395C11.0689 18.2013 11.3492 18.0581 11.4638 17.8091C11.49 17.7531 11.3504 17.6784 11.2396 17.6186C11.1798 17.5862 11.1175 17.5526 11.0701 17.5178C11.0253 17.4841 10.9817 17.4505 10.9368 17.4157C10.7612 17.28 10.5805 17.1393 10.3414 17.0484ZM10.0623 16.1607L10.0199 16.1059C9.83556 15.8706 9.79445 15.6216 9.75832 15.4012C9.68358 14.9443 9.44189 14.6778 8.9498 14.5097C8.45523 14.3404 7.96189 14.1449 7.43866 13.937C7.20072 13.8424 6.9528 13.744 6.69119 13.6432L6.54294 13.5859L16.5653 9.59431L16.6936 9.77609L10.0623 16.1607ZM6.88429 13.5847C7.09233 13.6656 7.29166 13.7453 7.48476 13.8212C8.0055 14.0279 8.49883 14.2234 8.98967 14.3915C9.52411 14.5745 9.79819 14.8783 9.88041 15.3788C9.9128 15.5767 9.94519 15.7784 10.076 15.9727L16.5304 9.75866L16.5205 9.74496L6.88429 13.5847Z" fill="white"/>
</g>
<defs>
<clipPath id="clip0">
<rect width="27" height="27" fill="white"/>
</clipPath>
</defs>
</svg>
