<svg width="27" height="27" viewBox="0 0 27 27" fill="none" xmlns="http://www.w3.org/2000/svg">
<g clip-path="url(#clip0)">
<path d="M26.8165 13.4593C26.8024 19.1579 23.1366 24.2377 17.7263 26.0317C14.27 27.1776 10.8995 26.9387 7.62556 25.3471C7.44204 25.2576 7.28087 25.2459 7.08087 25.2988C5.07979 25.8317 3.07517 26.3517 1.07172 26.8787C0.775267 26.9564 0.494103 26.9987 0.248231 26.7576C-0.0152867 26.4988 0.0482399 26.2011 0.131766 25.8941C0.652919 23.9812 1.16466 22.0648 1.6964 20.1543C1.77405 19.8755 1.73523 19.6544 1.607 19.405C-2.33048 11.7041 2.07756 2.29394 10.5101 0.390491C16.0758 -0.865924 21.8438 1.53397 24.8189 6.342C26.1624 8.51484 26.8224 10.8653 26.8165 13.4593ZM13.4582 25.4541C20.8167 25.5153 26.4612 18.9497 25.4001 11.5629C24.3166 4.01857 16.2158 -0.672991 9.13255 2.141C2.30461 4.855 -0.568204 12.7276 2.91635 19.1967C3.08928 19.5179 3.12811 19.8073 3.02811 20.1602C2.57754 21.7578 2.15874 23.3636 1.70817 24.9612C1.60347 25.3329 1.6717 25.3965 2.03639 25.2976C3.69632 24.8506 5.36095 24.4271 7.02088 23.9789C7.34204 23.8918 7.61615 23.9224 7.90672 24.0777C9.64194 24.9988 11.4995 25.4318 13.4582 25.4541Z" fill="white"/>
<path d="M0.69417 26.9999C0.525942 26.9999 0.360067 26.9505 0.205956 26.7999C-0.0963839 26.5035 0.00243532 26.1423 0.0741969 25.8788C0.241248 25.2647 0.4083 24.6494 0.574175 24.0353C0.920042 22.7577 1.27767 21.4366 1.63883 20.139C1.70824 19.8908 1.68354 19.6861 1.55413 19.432C-0.331668 15.7439 -0.398724 11.4665 1.36708 7.69606C3.13289 3.92681 6.46098 1.2434 10.4973 0.33285C16.0994 -0.9318 21.8744 1.47045 24.8684 6.31141C26.2248 8.50426 26.8813 10.8418 26.8742 13.4593H26.8154H26.8742C26.8601 19.2061 23.1908 24.2812 17.744 26.0882C14.2995 27.2305 10.8867 26.9999 7.59857 25.4012C7.43035 25.32 7.28447 25.307 7.09507 25.3576C5.85512 25.6882 4.59282 26.0188 3.37288 26.3376C2.61056 26.5376 1.84824 26.7364 1.08592 26.9376C0.957688 26.9705 0.824752 26.9999 0.69417 26.9999ZM13.483 0.117566C12.5019 0.117566 11.5102 0.225796 10.5232 0.448139C6.52215 1.35045 3.22347 4.01151 1.47414 7.74664C-0.276376 11.4841 -0.20932 15.7239 1.65883 19.3791C1.80118 19.6579 1.82941 19.8943 1.75177 20.1708C1.39061 21.4672 1.03298 22.7883 0.687111 24.0659C0.521236 24.68 0.354185 25.2953 0.187133 25.9094C0.101255 26.2258 0.0541978 26.4858 0.288305 26.7152C0.517707 26.9399 0.782401 26.894 1.05651 26.8211C1.81883 26.6199 2.58115 26.4211 3.34347 26.2211C4.56341 25.9011 5.82571 25.5706 7.06566 25.2412C7.28329 25.1835 7.4574 25.1988 7.65151 25.2929C10.9102 26.8776 14.2936 27.107 17.7087 25.9741C23.1073 24.1836 26.7436 19.1532 26.7589 13.457C26.766 10.863 26.1154 8.54425 24.7708 6.37141C22.3285 2.42923 18.0228 0.117566 13.483 0.117566ZM13.5583 25.5129C13.5254 25.5129 13.4913 25.5129 13.4583 25.5129C11.4419 25.4894 9.56555 25.0235 7.88092 24.1294C7.60328 23.9824 7.34329 23.953 7.03742 24.0365C6.19981 24.2624 5.34573 24.4859 4.52106 24.7024C3.71169 24.9141 2.87408 25.1341 2.05293 25.3553C1.86824 25.4047 1.72942 25.4235 1.6553 25.3482C1.58001 25.2729 1.60001 25.1329 1.65295 24.9471C1.88 24.1412 2.10352 23.3201 2.3188 22.5248C2.53056 21.7448 2.74937 20.9378 2.97289 20.1461C3.06701 19.8143 3.03407 19.5391 2.86584 19.2261C1.19768 16.1298 0.920043 12.4923 2.10117 9.24658C3.28465 5.99731 5.83983 3.38801 9.11145 2.08807C12.5042 0.739891 16.3076 1.04223 19.5463 2.91744C22.785 4.79265 24.9402 7.94193 25.459 11.5547C25.9731 15.1298 24.919 18.725 22.5662 21.4155C20.2863 24.0236 17.0088 25.5129 13.5583 25.5129ZM13.4583 25.3953C16.9088 25.4212 20.198 23.9448 22.4768 21.3378C24.8061 18.672 25.8495 15.1122 25.3413 11.5712C24.8272 7.99251 22.6932 4.87618 19.4863 3.01861C16.2794 1.16105 12.5137 0.862239 9.1538 2.1963C5.91394 3.48448 3.38346 6.06789 2.21175 9.2854C1.04121 12.5005 1.31767 16.1027 2.96936 19.1685C3.15406 19.5108 3.18936 19.8132 3.08583 20.1767C2.86231 20.9672 2.6435 21.7743 2.43174 22.5542C2.21646 23.3495 1.99294 24.1706 1.76589 24.9776C1.72001 25.14 1.7106 25.2365 1.73883 25.2647C1.76589 25.2929 1.86118 25.2847 2.02235 25.2412C2.84466 25.02 3.6811 24.8 4.49165 24.5883C5.31632 24.3718 6.1704 24.1483 7.00684 23.9224C7.34329 23.8318 7.63034 23.8636 7.93621 24.0259C9.60319 24.9118 11.4619 25.3717 13.4583 25.3953Z" fill="white"/>
<path d="M16.4332 20.1332C15.238 20.0555 13.8357 19.4579 12.4958 18.7121C10.7982 17.7662 9.46648 16.4016 8.29006 14.8758C7.57009 13.9417 6.87718 12.9923 6.57131 11.8253C6.13604 10.1689 6.51132 8.72896 7.68421 7.47255C8.32418 6.7867 9.45472 6.79728 10.1559 7.00551C10.5464 7.12198 10.7464 7.47255 10.8982 7.83371C11.177 8.49721 11.4135 9.18189 11.7346 9.82421C12.1652 10.6853 12.0217 11.4383 11.3605 12.07C10.9829 12.43 11.0852 12.6747 11.3311 13.0276C12.1769 14.237 13.2416 15.1675 14.5968 15.7722C14.8945 15.9051 15.0768 15.8745 15.2603 15.6075C15.4592 15.3169 15.6874 15.0463 15.9109 14.7734C16.2544 14.3546 16.6944 14.2005 17.2108 14.3805C18.2132 14.7299 19.1225 15.2816 20.079 15.731C20.4789 15.9192 20.6048 16.3345 20.5766 16.7851C20.4448 18.8509 18.9955 20.1414 16.4332 20.1332ZM16.7403 18.8709C16.972 18.8509 17.1791 18.8473 17.3814 18.8132C18.3884 18.6415 19.1131 17.9697 19.2696 17.0968C19.3096 16.8721 19.2602 16.7474 19.0472 16.6474C18.3943 16.3439 17.7485 16.0275 17.105 15.704C16.925 15.6134 16.8226 15.6451 16.7015 15.8039C16.4262 16.1663 16.138 16.5204 15.838 16.8615C15.5144 17.2298 15.098 17.3486 14.6392 17.1721C12.5287 16.3604 10.9147 14.9652 9.8147 12.9888C9.55824 12.5276 9.63471 12.1323 9.98646 11.7335C10.1606 11.5347 10.3311 11.3324 10.5006 11.13C10.6888 10.9053 10.7088 10.6783 10.5817 10.3995C10.3194 9.82539 10.0947 9.23483 9.85352 8.65132C9.62765 8.10429 9.03944 7.98076 8.59828 8.3878C7.98184 8.95719 7.66891 9.65598 7.66774 10.4995C7.66774 11.1183 7.8242 11.7006 8.1136 12.2323C9.44295 14.6746 11.237 16.6769 13.7581 17.9309C14.7015 18.3991 15.6839 18.8085 16.7403 18.8709Z" fill="white"/>
<path d="M16.4605 20.1919C16.451 20.1919 16.4428 20.1919 16.4334 20.1919H16.4299C15.3805 20.1237 14.0464 19.6425 12.4665 18.7626C10.9678 17.9273 9.62546 16.7038 8.24199 14.911C7.50438 13.9545 6.81735 12.9993 6.51266 11.8393C6.0715 10.1582 6.43972 8.71712 7.63967 7.43129C8.3514 6.66779 9.56546 6.76897 10.1713 6.94778C10.5925 7.07248 10.8019 7.45364 10.9513 7.8101C11.043 8.03009 11.1313 8.25243 11.2195 8.4736C11.3936 8.91358 11.5736 9.36885 11.7865 9.79589C12.223 10.67 12.0936 11.4488 11.4007 12.1099C11.0713 12.424 11.1242 12.6275 11.3783 12.991C12.2524 14.2416 13.3124 15.1321 14.6194 15.7145C14.9017 15.8403 15.0499 15.8039 15.2099 15.5709C15.3911 15.3074 15.597 15.0568 15.797 14.8145L15.864 14.7333C16.2346 14.2828 16.7063 14.1404 17.2287 14.3216C17.8969 14.5545 18.5333 14.8816 19.1486 15.198C19.4603 15.358 19.7815 15.5239 20.1027 15.6745C20.4791 15.8509 20.6685 16.245 20.6344 16.785C20.4968 18.952 18.9756 20.1919 16.4605 20.1919ZM16.4358 20.0743C16.444 20.0743 16.4522 20.0743 16.4605 20.0743C18.9074 20.0743 20.385 18.8743 20.5168 16.7791C20.5391 16.4344 20.4756 15.9803 20.0532 15.7827C19.7297 15.6309 19.4074 15.4651 19.0945 15.3039C18.4827 14.9898 17.851 14.6639 17.1898 14.4345C16.711 14.2675 16.2958 14.3933 15.9546 14.8086L15.8875 14.8898C15.6899 15.1298 15.4852 15.3792 15.3064 15.638C15.1123 15.9203 14.9064 15.9721 14.5711 15.8227C13.2441 15.231 12.1677 14.3275 11.2819 13.0581C11.0454 12.7193 10.8972 12.4275 11.3195 12.0252C11.9701 11.4029 12.0924 10.6711 11.6818 9.84883C11.4654 9.41709 11.2854 8.95946 11.1101 8.51713C11.023 8.29596 10.9348 8.07479 10.8431 7.85598C10.6972 7.50893 10.5113 7.1713 10.1384 7.0619C9.38782 6.83955 8.31258 6.88543 7.72672 7.51246C6.55736 8.76535 6.19738 10.1712 6.62795 11.8099C6.92676 12.9487 7.60673 13.8922 8.33611 14.8392C9.70899 16.6191 11.0395 17.8332 12.5242 18.6602C14.0876 19.5308 15.4029 20.006 16.4358 20.0743ZM16.7416 18.9296H16.7369C15.6334 18.8649 14.5982 18.4143 13.7323 17.9826C11.3748 16.8097 9.52076 14.9368 8.06318 12.2593C7.76201 11.7064 7.61026 11.1135 7.61026 10.4982C7.61026 9.64884 7.93024 8.92417 8.55963 8.34302C8.78667 8.13361 9.06666 8.04538 9.32665 8.1042C9.58193 8.16067 9.79487 8.35125 9.90898 8.62771C9.98192 8.80535 10.0549 8.98416 10.1266 9.1618C10.2878 9.56179 10.4548 9.97589 10.6372 10.3735C10.776 10.677 10.7466 10.9288 10.5478 11.1664C10.3819 11.3641 10.2101 11.5688 10.0325 11.7711C9.68193 12.1687 9.63134 12.5346 9.8678 12.9593C10.9536 14.9121 12.5665 16.3109 14.6617 17.1168C15.0899 17.2814 15.4817 17.1791 15.7946 16.8226C16.0828 16.4944 16.3722 16.1403 16.6557 15.7686C16.7969 15.5827 16.931 15.5509 17.1322 15.6521C17.8545 16.0156 18.4898 16.3238 19.0721 16.5944C19.3027 16.7015 19.3744 16.845 19.3274 17.1073C19.1662 18.0061 18.4063 18.6979 17.391 18.8708C17.2522 18.8943 17.111 18.9037 16.9628 18.9131C16.8922 18.9178 16.8204 18.9226 16.7452 18.9296H16.7416ZM9.16666 8.20537C8.98431 8.20537 8.79726 8.28419 8.63845 8.43125C8.02553 8.9971 7.7279 9.67355 7.7279 10.4994C7.7279 11.0958 7.87495 11.6688 8.1667 12.204C9.61252 14.8592 11.4501 16.7156 13.7853 17.8779C14.6405 18.3038 15.6605 18.7473 16.7404 18.812C16.8146 18.8061 16.8863 18.8014 16.9557 18.7967C17.1016 18.7873 17.2381 18.7779 17.3722 18.7555C18.3521 18.5884 19.058 17.9497 19.2121 17.0873C19.2497 16.8791 19.2039 16.7862 19.0227 16.7015C18.438 16.4297 17.8028 16.1215 17.0793 15.7568C16.9298 15.6815 16.8557 15.7003 16.7487 15.8392C16.464 16.2133 16.1722 16.5697 15.8817 16.9003C15.537 17.292 15.0888 17.4073 14.617 17.2273C12.4959 16.4109 10.8619 14.9945 9.76193 13.0169C9.50194 12.5487 9.55841 12.1287 9.94074 11.6935C10.1172 11.4935 10.289 11.2888 10.4537 11.0911C10.6254 10.8864 10.6466 10.6864 10.5266 10.4229C10.3443 10.0218 10.176 9.60767 10.0149 9.20651C9.94309 9.02887 9.87133 8.85005 9.7984 8.67359C9.69722 8.43007 9.52076 8.2689 9.29959 8.22067C9.25724 8.21008 9.21136 8.20537 9.16666 8.20537Z" fill="white"/>
</g>
<defs>
<clipPath id="clip0">
<rect width="26.8753" height="27" fill="white"/>
</clipPath>
</defs>
</svg>
